<mxfile host="app.diagrams.net" agent="Mozilla/5.0 (X11; Ubuntu; Linux x86_64; rv:135.0) Gecko/20100101 Firefox/135.0" version="26.0.16">
  <diagram name="Page-1" id="BvBCheXetK6hofgTyeCg">
    <mxGraphModel dx="1249" dy="677" grid="1" gridSize="10" guides="1" tooltips="1" connect="1" arrows="1" fold="1" page="1" pageScale="1" pageWidth="850" pageHeight="1100" math="0" shadow="0">
      <root>
        <mxCell id="0" />
        <mxCell id="1" parent="0" />
        <mxCell id="1W4KWE_KAfENNVeIZooy-21" value="&lt;div&gt;admin&lt;/div&gt;" style="swimlane;whiteSpace=wrap;html=1;" vertex="1" parent="1">
          <mxGeometry x="40" y="160" width="120" height="70" as="geometry" />
        </mxCell>
        <mxCell id="1W4KWE_KAfENNVeIZooy-26" value="&lt;div&gt;Alumini&lt;/div&gt;" style="swimlane;whiteSpace=wrap;html=1;startSize=23;" vertex="1" parent="1">
          <mxGeometry x="640" y="160" width="120" height="70" as="geometry" />
        </mxCell>
        <mxCell id="1W4KWE_KAfENNVeIZooy-27" value="&lt;div&gt;faculty&lt;/div&gt;" style="swimlane;whiteSpace=wrap;html=1;startSize=23;" vertex="1" parent="1">
          <mxGeometry x="340" y="40" width="115" height="80" as="geometry" />
        </mxCell>
        <mxCell id="1W4KWE_KAfENNVeIZooy-59" style="edgeStyle=orthogonalEdgeStyle;rounded=0;orthogonalLoop=1;jettySize=auto;html=1;exitX=1;exitY=1;exitDx=0;exitDy=0;entryX=0;entryY=0;entryDx=0;entryDy=0;" edge="1" parent="1" source="1W4KWE_KAfENNVeIZooy-28" target="1W4KWE_KAfENNVeIZooy-34">
          <mxGeometry relative="1" as="geometry" />
        </mxCell>
        <mxCell id="1W4KWE_KAfENNVeIZooy-67" style="edgeStyle=orthogonalEdgeStyle;rounded=0;orthogonalLoop=1;jettySize=auto;html=1;exitX=1;exitY=0.5;exitDx=0;exitDy=0;entryX=0;entryY=0.25;entryDx=0;entryDy=0;" edge="1" parent="1" source="1W4KWE_KAfENNVeIZooy-28" target="1W4KWE_KAfENNVeIZooy-66">
          <mxGeometry relative="1" as="geometry" />
        </mxCell>
        <mxCell id="1W4KWE_KAfENNVeIZooy-28" value="&lt;div&gt;userRegstration&lt;/div&gt;" style="ellipse;whiteSpace=wrap;html=1;" vertex="1" parent="1">
          <mxGeometry x="35" y="375" width="100" height="60" as="geometry" />
        </mxCell>
        <mxCell id="1W4KWE_KAfENNVeIZooy-29" value="profile-Mangement" style="ellipse;whiteSpace=wrap;html=1;" vertex="1" parent="1">
          <mxGeometry x="490" y="350" width="120" height="80" as="geometry" />
        </mxCell>
        <mxCell id="1W4KWE_KAfENNVeIZooy-62" style="edgeStyle=orthogonalEdgeStyle;rounded=0;orthogonalLoop=1;jettySize=auto;html=1;exitX=0.5;exitY=1;exitDx=0;exitDy=0;entryX=0.5;entryY=0;entryDx=0;entryDy=0;" edge="1" parent="1" source="1W4KWE_KAfENNVeIZooy-30" target="1W4KWE_KAfENNVeIZooy-60">
          <mxGeometry relative="1" as="geometry" />
        </mxCell>
        <mxCell id="1W4KWE_KAfENNVeIZooy-63" style="edgeStyle=orthogonalEdgeStyle;rounded=0;orthogonalLoop=1;jettySize=auto;html=1;exitX=1;exitY=1;exitDx=0;exitDy=0;entryX=0;entryY=0;entryDx=0;entryDy=0;" edge="1" parent="1" source="1W4KWE_KAfENNVeIZooy-30" target="1W4KWE_KAfENNVeIZooy-61">
          <mxGeometry relative="1" as="geometry" />
        </mxCell>
        <mxCell id="1W4KWE_KAfENNVeIZooy-30" value="&lt;div&gt;events&lt;/div&gt;" style="ellipse;whiteSpace=wrap;html=1;" vertex="1" parent="1">
          <mxGeometry x="305" y="180" width="105" height="70" as="geometry" />
        </mxCell>
        <mxCell id="1W4KWE_KAfENNVeIZooy-65" style="edgeStyle=orthogonalEdgeStyle;rounded=0;orthogonalLoop=1;jettySize=auto;html=1;exitX=0.5;exitY=1;exitDx=0;exitDy=0;entryX=0.5;entryY=0;entryDx=0;entryDy=0;" edge="1" parent="1" source="1W4KWE_KAfENNVeIZooy-31" target="1W4KWE_KAfENNVeIZooy-64">
          <mxGeometry relative="1" as="geometry" />
        </mxCell>
        <mxCell id="1W4KWE_KAfENNVeIZooy-31" value="Networking/Communication" style="ellipse;whiteSpace=wrap;html=1;" vertex="1" parent="1">
          <mxGeometry x="480" y="160" width="100" height="50" as="geometry" />
        </mxCell>
        <mxCell id="1W4KWE_KAfENNVeIZooy-32" value="&lt;div&gt;admin-Management&lt;/div&gt;" style="ellipse;whiteSpace=wrap;html=1;" vertex="1" parent="1">
          <mxGeometry x="150" y="260" width="100" height="60" as="geometry" />
        </mxCell>
        <mxCell id="1W4KWE_KAfENNVeIZooy-33" value="&lt;div&gt;Users&lt;/div&gt;" style="swimlane;whiteSpace=wrap;html=1;" vertex="1" parent="1">
          <mxGeometry x="310" y="520" width="110" height="70" as="geometry" />
        </mxCell>
        <mxCell id="1W4KWE_KAfENNVeIZooy-34" value="Verify" style="ellipse;whiteSpace=wrap;html=1;" vertex="1" parent="1">
          <mxGeometry x="135" y="460" width="80" height="50" as="geometry" />
        </mxCell>
        <mxCell id="1W4KWE_KAfENNVeIZooy-35" value="&lt;div&gt;Authorization&lt;/div&gt;" style="ellipse;whiteSpace=wrap;html=1;" vertex="1" parent="1">
          <mxGeometry x="40" y="510" width="90" height="60" as="geometry" />
        </mxCell>
        <mxCell id="1W4KWE_KAfENNVeIZooy-42" value="&lt;div&gt;Database&lt;/div&gt;&lt;div&gt;&lt;br&gt;&lt;/div&gt;" style="swimlane;horizontal=0;whiteSpace=wrap;html=1;startSize=30;" vertex="1" parent="1">
          <mxGeometry x="570" y="450" width="100" height="60" as="geometry" />
        </mxCell>
        <mxCell id="1W4KWE_KAfENNVeIZooy-45" value="" style="endArrow=classic;html=1;rounded=0;exitX=1;exitY=1;exitDx=0;exitDy=0;entryX=0.25;entryY=0;entryDx=0;entryDy=0;" edge="1" parent="1" source="1W4KWE_KAfENNVeIZooy-29" target="1W4KWE_KAfENNVeIZooy-42">
          <mxGeometry width="50" height="50" relative="1" as="geometry">
            <mxPoint x="470" y="370" as="sourcePoint" />
            <mxPoint x="520" y="320" as="targetPoint" />
          </mxGeometry>
        </mxCell>
        <mxCell id="1W4KWE_KAfENNVeIZooy-46" value="Update" style="ellipse;whiteSpace=wrap;html=1;" vertex="1" parent="1">
          <mxGeometry x="620" y="290" width="80" height="50" as="geometry" />
        </mxCell>
        <mxCell id="1W4KWE_KAfENNVeIZooy-47" value="Delete" style="ellipse;whiteSpace=wrap;html=1;" vertex="1" parent="1">
          <mxGeometry x="650" y="370" width="80" height="40" as="geometry" />
        </mxCell>
        <mxCell id="1W4KWE_KAfENNVeIZooy-48" value="" style="endArrow=classic;html=1;rounded=0;entryX=0;entryY=1;entryDx=0;entryDy=0;exitX=0.949;exitY=0.314;exitDx=0;exitDy=0;exitPerimeter=0;" edge="1" parent="1" source="1W4KWE_KAfENNVeIZooy-29" target="1W4KWE_KAfENNVeIZooy-46">
          <mxGeometry width="50" height="50" relative="1" as="geometry">
            <mxPoint x="540" y="330" as="sourcePoint" />
            <mxPoint x="520" y="320" as="targetPoint" />
          </mxGeometry>
        </mxCell>
        <mxCell id="1W4KWE_KAfENNVeIZooy-50" value="" style="endArrow=classic;html=1;rounded=0;entryX=0;entryY=0.5;entryDx=0;entryDy=0;" edge="1" parent="1" source="1W4KWE_KAfENNVeIZooy-29" target="1W4KWE_KAfENNVeIZooy-47">
          <mxGeometry width="50" height="50" relative="1" as="geometry">
            <mxPoint x="564" y="315" as="sourcePoint" />
            <mxPoint x="611" y="303" as="targetPoint" />
          </mxGeometry>
        </mxCell>
        <mxCell id="1W4KWE_KAfENNVeIZooy-51" value="" style="endArrow=classic;html=1;rounded=0;entryX=0.5;entryY=0;entryDx=0;entryDy=0;" edge="1" parent="1" source="1W4KWE_KAfENNVeIZooy-28" target="1W4KWE_KAfENNVeIZooy-35">
          <mxGeometry width="50" height="50" relative="1" as="geometry">
            <mxPoint x="470" y="370" as="sourcePoint" />
            <mxPoint x="520" y="320" as="targetPoint" />
          </mxGeometry>
        </mxCell>
        <mxCell id="1W4KWE_KAfENNVeIZooy-60" value="Managment" style="ellipse;whiteSpace=wrap;html=1;" vertex="1" parent="1">
          <mxGeometry x="280" y="280" width="80" height="40" as="geometry" />
        </mxCell>
        <mxCell id="1W4KWE_KAfENNVeIZooy-61" value="promotion" style="ellipse;whiteSpace=wrap;html=1;" vertex="1" parent="1">
          <mxGeometry x="375" y="275" width="80" height="45" as="geometry" />
        </mxCell>
        <mxCell id="1W4KWE_KAfENNVeIZooy-64" value="Messaging" style="ellipse;whiteSpace=wrap;html=1;" vertex="1" parent="1">
          <mxGeometry x="485" y="250" width="90" height="40" as="geometry" />
        </mxCell>
        <mxCell id="1W4KWE_KAfENNVeIZooy-66" value="User-Database" style="swimlane;horizontal=0;whiteSpace=wrap;html=1;startSize=25;" vertex="1" parent="1">
          <mxGeometry x="205" y="380" width="75" height="60" as="geometry" />
        </mxCell>
      </root>
    </mxGraphModel>
  </diagram>
</mxfile>
